<svg id="Calque_1" data-name="Calque 1" xmlns="http://www.w3.org/2000/svg" viewBox="0 0 3556.69811 2395.51912"><defs><style>.cls-1,.cls-6{fill:#0071bc;}.cls-1{stroke:#000;stroke-miterlimit:10;}.cls-2{isolation:isolate;}.cls-3{fill:#fff;}.cls-4{fill:#3dbff6;}.cls-5{fill:#208fcc;}</style></defs><rect class="cls-1" x="0.5" y="0.5" width="3555.69811" height="2394.51912"/><g class="cls-2"><g class="cls-2"><path class="cls-3" d="M812.67888,2013.20187v-380.1543c0-3.7207,1.86084-5.59082,5.59082-5.59082h6.7085q4.46777,0,6.14941,4.47265l70.99951,177.77832c.3667,1.11817.92578,1.58985,1.67725,1.39747a2.493,2.493,0,0,0,1.67724-1.39747l72.67627-177.77832c1.11817-2.97851,3.16211-4.47265,6.14991-4.47265h6.70849c3.72119,0,5.59033,1.87012,5.59033,5.59082v380.1543q0,5.59569-5.59033,5.59082H985.426q-5.595,0-5.59082-5.59082V1672.18136c0-1.11817-.37549-1.76465-1.11816-1.957-.751-.1836-1.31006.27929-1.67676,1.39746L911.631,1834.30636c-1.11817,2.9873-3.1709,4.47168-6.14942,4.47168h-.55908c-2.9873,0-5.03174-1.48438-6.1499-4.47168l-66.52686-162.68457a1.8012,1.8012,0,0,0-1.67724-1.11817c-.751,0-1.11817.55957-1.11817,1.67774v341.02051q0,5.59569-5.59033,5.59082H818.2697Q812.67473,2018.79269,812.67888,2013.20187Z" transform="translate(2.15857 -11.2623)"/></g><g class="cls-2"><path class="cls-3" d="M1244.82292,1643.111H1108.41423a1.97746,1.97746,0,0,0-2.23633,2.23536v167.71582a1.97465,1.97465,0,0,0,2.23633,2.23632h89.44824q5.58178,0,5.59034,5.58985v3.91406q0,5.59424-5.59034,5.58984h-89.44824a1.97815,1.97815,0,0,0-2.23633,2.23633V2000.903a1.97427,1.97427,0,0,0,2.23633,2.23633h136.40869q5.58178,0,5.59033,5.59082v4.47168q0,5.59569-5.59033,5.59082H1094.99724q-5.595,0-5.59082-5.59082v-380.1543c0-3.7207,1.86084-5.59082,5.59082-5.59082h149.82568c3.72119,0,5.59033,1.87012,5.59033,5.59082v4.47265Q1250.41325,1643.11447,1244.82292,1643.111Z" transform="translate(2.15857 -11.2623)"/><path class="cls-3" d="M1334.548,1996.71065q-23.20531-26.54736-23.20068-70.16113v-10.62207q0-5.58252,5.59033-5.59082h5.03174q5.58179,0,5.59033,5.59082V1925.99q0,36.89795,18.72851,59.53906,18.72365,22.64209,48.35791,22.64161,29.625,0,49.19629-21.80274,19.56226-21.80274,19.5669-57.02344,0-22.916-8.94483-39.69238a102.61534,102.61534,0,0,0-22.08252-28.51172q-13.14257-11.74072-43.32666-34.10254-28.51171-21.80273-43.60595-36.33789a121.68909,121.68909,0,0,1-24.59815-33.543q-9.51268-18.999-9.5039-45.2832,0-41.36573,22.6416-65.12891,22.64136-23.75536,57.86181-23.75976,38.01123,0,61.21582,26.834,23.19214,26.83447,23.20069,70.44043V1734.236q0,5.59425-5.59033,5.58985h-5.03174q-5.59423,0-5.59033-5.58985v-13.417q0-37.44873-18.728-60.09863-18.73681-22.64062-49.47608-22.6416-27.96167,0-45.84228,19.56738-17.89819,19.57471-17.88965,55.3457,0,20.68945,7.26758,36.0586a98.06018,98.06018,0,0,0,21.24414,28.791q13.96728,13.418,41.36963,33.543,32.97949,24.60792,48.917,39.41309a108.746,108.746,0,0,1,24.31885,32.14551q8.38549,17.335,8.38574,42.48828,0,44.16943-23.48,70.999-23.48071,26.83448-60.937,26.835Q1357.74432,2023.26534,1334.548,1996.71065Z" transform="translate(2.15857 -11.2623)"/><path class="cls-3" d="M1708.82976,1627.45675h5.59082c3.7207,0,5.58984,1.87012,5.58984,5.59082v380.1543q0,5.59569-5.58984,5.59082h-5.59082q-5.59424,0-5.59082-5.59082V1832.62862a1.98148,1.98148,0,0,0-2.23633-2.23633h-124.668a1.978,1.978,0,0,0-2.23633,2.23633v180.57325q0,5.59569-5.59082,5.59082h-5.58984q-5.59571,0-5.59082-5.59082v-380.1543c0-3.7207,1.86035-5.59082,5.59082-5.59082h5.58984c3.72168,0,5.59082,1.87012,5.59082,5.59082v180.01465a1.97446,1.97446,0,0,0,2.23633,2.23632h124.668a1.978,1.978,0,0,0,2.23633-2.23632V1633.04757C1703.23894,1629.32687,1705.10027,1627.45675,1708.82976,1627.45675Z" transform="translate(2.15857 -11.2623)"/><path class="cls-3" d="M1970.46257,2014.32l-67.08594-183.92774a2.19351,2.19351,0,0,0-2.23632-1.67675h-63.73145a1.978,1.978,0,0,0-2.23633,2.23633v182.25q0,5.59569-5.58984,5.59082h-5.59082q-5.5957,0-5.59082-5.59082V1631.9294q0-5.58105,5.59082-5.58984h79.38476q37.44873,0,60.09864,27.95215,22.64063,27.96093,22.6416,73.79492,0,39.7002-17.33106,65.96777-17.335,26.28371-47.51953,32.9834c-1.49316.752-2.05273,1.67774-1.67676,2.7959l67.08594,182.80957.5586,2.23633q0,3.917-5.03125,3.91309h-5.03125Q1972.13981,2018.79269,1970.46257,2014.32Zm-135.29-370.0918v167.15625a1.97446,1.97446,0,0,0,2.23633,2.23633H1902.818q30.189,0,48.35742-23.47949,18.16113-23.48,18.16992-62.05469,0-38.5752-18.16992-62.335-18.17284-23.75391-48.35742-23.75879h-65.40918A1.97765,1.97765,0,0,0,1835.17253,1644.22823Z" transform="translate(2.15857 -11.2623)"/><path class="cls-3" d="M2069.96648,1998.38741q-24.044-24.86865-24.03907-65.12988v-219.707q0-40.251,24.03907-65.40821,24.03075-25.15722,62.05468-25.15722,38.57373,0,62.89356,25.15722,24.31786,25.15724,24.31836,65.40821v219.707q0,40.25244-24.31836,65.12988-24.31934,24.88183-62.89356,24.87793Q2093.99676,2023.26534,2069.96648,1998.38741Zm112.92773-11.18066q19.563-20.40234,19.56738-52.83106V1712.43331q0-32.417-19.56738-53.11035-19.5747-20.67627-50.87305-20.68457-30.75292,0-50.03515,20.68457-19.2876,20.68945-19.28711,53.11035v221.94238q0,32.43018,19.28711,52.83106,19.2876,20.41405,50.03515,20.40527Q2163.32341,2007.612,2182.89421,1987.20675Z" transform="translate(2.15857 -11.2623)"/><path class="cls-3" d="M2319.30241,1998.38741q-24.04394-24.86865-24.03906-65.12988v-219.707q0-40.251,24.03906-65.40821,24.03077-25.15722,62.05469-25.15722,38.57373,0,62.89356,25.15722,24.31786,25.15724,24.31836,65.40821v219.707q0,40.25244-24.31836,65.12988-24.31934,24.88183-62.89356,24.87793Q2343.33269,2023.26534,2319.30241,1998.38741Zm112.92774-11.18066q19.563-20.40234,19.56738-52.83106V1712.43331q0-32.417-19.56738-53.11035-19.57472-20.67627-50.873-20.68457-30.75293,0-50.03515,20.68457-19.2876,20.68945-19.28711,53.11035v221.94238q0,32.43018,19.28711,52.83106,19.28758,20.41405,50.03515,20.40527Q2412.65935,2007.612,2432.23015,1987.20675Z" transform="translate(2.15857 -11.2623)"/><path class="cls-3" d="M2555.78,2013.20187v-380.1543c0-3.7207,1.86036-5.59082,5.59082-5.59082h6.708q4.46924,0,6.15039,4.47265l70.999,177.77832c.36718,1.11817.92578,1.58985,1.67675,1.39747a2.49277,2.49277,0,0,0,1.67774-1.39747l72.67676-177.77832q1.67724-4.46776,6.14941-4.47265h6.708c3.72168,0,5.59082,1.87012,5.59082,5.59082v380.1543q0,5.59569-5.59082,5.59082H2728.527q-5.59569,0-5.59082-5.59082V1672.18136c0-1.11817-.376-1.76465-1.11816-1.957-.751-.1836-1.31055.27929-1.67676,1.39746l-65.40918,162.68457c-1.11816,2.9873-3.1709,4.47168-6.14941,4.47168h-.55957c-2.98731,0-5.03125-1.48438-6.14942-4.47168l-66.52636-162.68457a1.80281,1.80281,0,0,0-1.67774-1.11817c-.751,0-1.11816.55957-1.11816,1.67774v341.02051q0,5.59569-5.58985,5.59082h-5.59082Q2555.77508,2018.79269,2555.78,2013.20187Z" transform="translate(2.15857 -11.2623)"/></g></g><path class="cls-4" d="M2016.64742,417.98717H1543.048l236.79963,409.59952H2253.4471Z" transform="translate(2.15857 -11.2623)"/><path class="cls-5" d="M1306.24831,827.58669,1543.048,417.98717l236.79963,409.59952L1543.048,1237.18618Z" transform="translate(2.15857 -11.2623)"/><path class="cls-4" d="M1306.24831,827.58669h473.59943l236.79968,409.59949H1543.048Z" transform="translate(2.15857 -11.2623)"/><path class="cls-6" d="M2016.64742,417.98717,1779.84774,827.58669l236.79968,409.59949L2253.4471,827.58669Z" transform="translate(2.15857 -11.2623)"/><path class="cls-3" d="M2170.24727,968.3865l-121.6-204.79975-70.39978,127.99982,115.19983,204.79968Z" transform="translate(2.15857 -11.2623)"/><ellipse class="cls-6" cx="2070.00594" cy="937.92418" rx="12.79993" ry="19.20001"/><circle class="cls-3" cx="1308.40688" cy="816.32439" r="38.39996"/><circle class="cls-3" cx="1782.00631" cy="816.32439" r="38.39999"/><circle class="cls-3" cx="1545.20657" cy="1225.92388" r="38.39993"/><circle class="cls-3" cx="2018.80599" cy="1225.92388" r="38.40002"/><circle class="cls-3" cx="1545.20657" cy="406.72487" r="38.39995"/><circle class="cls-3" cx="2018.80599" cy="406.72487" r="38.39993"/><circle class="cls-3" cx="2255.60568" cy="816.32439" r="38.39999"/><path class="cls-3" d="M1786.24776,840.38662H1287.0483L1536.648,405.18719h499.1994ZM1331.84829,814.7867h441.59942l223.99976-383.99954H1549.448Z" transform="translate(2.15857 -11.2623)"/><path class="cls-3" d="M2023.04744,1249.98611H1536.648L1299.84829,833.98666l19.2-12.8L1549.448,1224.38613h460.7995l223.99975-396.7995-230.3999-403.19946,19.19995-12.8L2266.247,827.58669Z" transform="translate(2.15857 -11.2623)"/><rect class="cls-3" x="1882.84455" y="796.12634" width="25.59888" height="473.58002" transform="translate(-260.26715 1077.48813) rotate(-30.06754)"/></svg>